<?xml version="1.0" encoding="UTF-8"?>
<svg width="1200pt" height="1200pt" version="1.1" viewBox="0 0 1200 1200" xmlns="http://www.w3.org/2000/svg">
 <g>
  <path d="m845.28 298.8c0 37.777-30.625 68.398-68.402 68.398-37.773 0-68.398-30.621-68.398-68.398 0-37.777 30.625-68.402 68.398-68.402 37.777 0 68.402 30.625 68.402 68.402"/>
  <path d="m884.16 585.12c-8.3984-7.9219-19.922-12-31.68-11.281l-153.12 10.32 61.199-114.72c19.441-36.48 5.7617-81.84-30.719-101.28-4.8008-2.3984-9.6016-4.5586-14.398-5.7617-0.23828 0-0.48047 0-0.48047-0.23828-6-1.6797-12-2.6406-18-2.6406l-135.84-14.879c-11.281-1.1992-22.32 2.6406-30.238 10.559l-75.602 74.16c-14.641 14.398-14.879 38.16-0.48047 52.801 7.4414 7.4414 17.039 11.281 26.641 11.281 9.3594 0 18.961-3.6016 26.16-10.801l62.879-61.922 44.16 4.8008-73.922 138.72c-19.441 36.48-5.7617 81.84 30.719 101.28 11.281 6 23.281 8.8789 35.281 8.8789 1.4414 0 2.6406-0.23828 4.0781-0.23828 1.4414 0 3.1211 0.23828 4.5586 0.23828l198.24-13.441v162.48c0 23.281 18.719 42 42 42s42-18.961 42-42v-207.36c0.007812-11.758-4.793-23.039-13.434-30.957z"/>
  <path d="m734.88 690.24c-23.281 0-42 18.961-42 42 0 84.48-68.641 153.12-153.12 153.12-84.48 0-153.12-68.641-153.12-153.12 0-61.441 36.48-116.64 93.121-140.88 21.359-9.1211 31.199-33.84 22.078-55.199-9.1211-21.359-33.84-31.441-55.199-22.078-87.602 37.441-144 123.12-144 218.4 0 130.8 106.56 237.36 237.36 237.36 130.8 0 237.36-106.56 237.36-237.36-0.23438-23.52-19.195-42.242-42.477-42.242z"/>
 </g>
</svg>
