<?xml version="1.0" encoding="UTF-8"?>
<svg width="1200pt" height="1200pt" version="1.1" viewBox="0 0 1200 1200" xmlns="http://www.w3.org/2000/svg">
 <path d="m600 82.758c-137.18 0-268.74 54.496-365.75 151.5-97 97.004-151.5 228.57-151.5 365.75s54.496 268.74 151.5 365.75c97.004 97 228.57 151.5 365.75 151.5s268.74-54.496 365.75-151.5c97-97.004 151.5-228.57 151.5-365.75-0.15625-137.13-54.699-268.61-151.67-365.57s-228.44-151.51-365.57-151.67zm0 951.72v0.003906c-115.23 0-225.75-45.777-307.23-127.26-81.48-81.48-127.26-192-127.26-307.23s45.777-225.75 127.26-307.23c81.48-81.48 192-127.26 307.23-127.26s225.75 45.777 307.23 127.26c81.48 81.48 127.26 192 127.26 307.23-0.13281 115.19-45.953 225.62-127.41 307.08s-191.89 127.27-307.08 127.41zm0-620.69v0.003907c21.949 0 43-8.7188 58.52-24.238 15.52-15.52 24.238-36.57 24.238-58.52 0-21.949-8.7188-43-24.238-58.52s-36.57-24.238-58.52-24.238-43 8.7188-58.52 24.238-24.238 36.57-24.238 58.52c0 21.949 8.7188 43 24.238 58.52 15.52 15.52 36.57 24.238 58.52 24.238zm221.64 0.42578-216.53 31.504c-3.3945 0.49219-6.8398 0.49219-10.234 0l-216.51-31.504v0.003906c-14.613-2.0859-29.227 3.7656-38.359 15.359s-11.402 27.176-5.9531 40.891c5.4492 13.719 17.793 23.492 32.391 25.66l133.27 19.391c5.0039 0.72656 8.7148 5.0156 8.7148 10.074v159.67l-3.5391 16.324-85.473 187.9c-7.4492 12.77-7.5195 28.543-0.1875 41.379 7.3359 12.836 20.961 20.785 35.742 20.852 14.785 0.066406 28.48-7.7578 35.93-20.527l99.082-206.17c1.9102-3.9766 5.9375-6.5039 10.352-6.5 4.4102 0.007812 8.4297 2.5469 10.332 6.5273l98.387 206.14c7.4727 12.727 21.156 20.516 35.918 20.434 14.758-0.078125 28.359-8.0078 35.695-20.812 7.3398-12.805 7.3047-28.551-0.089844-41.324l-86.832-190.89-2.1992-10.145v-162.87c0-5.0547 3.7109-9.3438 8.7148-10.074l133.25-19.391c14.598-2.1602 26.938-11.93 32.395-25.641 5.4531-13.711 3.1953-29.289-5.9297-40.887-9.125-11.598-23.734-17.457-38.348-15.383z"/>
</svg>
