<?xml version="1.0" encoding="UTF-8"?>
<svg width="1200pt" height="1200pt" version="1.1" viewBox="0 0 1200 1200" xmlns="http://www.w3.org/2000/svg">
 <path d="m1168.2 419.23c-6.7734-8.1992-14.156-16.254-22.594-24.652-18.855-18.707-47.59-22.777-71.285-10.535-15.855-3.0703-25.277-12.539-27.996-28.188-1.6875-9.707-2.4609-19.867-3.2695-30.621-0.45703-5.9883-0.91406-11.973-1.5234-17.938-1.1016-10.867-4.1133-26.836-17.297-39.934-16.488-16.383-32.918-32.812-49.336-49.242-14.156-14.152-28.301-28.309-42.48-42.422-50.812-50.578-113.77-81.766-187.1-92.707-67.348-10.039-137.99-4.8828-222.27 16.242-12.277 3.0703-21.812 15.262-21.715 27.832 0.085937 7.707 0.45312 15.398 0.82031 23.234l0.35156 7.5625c0.52734 12.121 10.012 21.938 22.109 22.887l2.3711 0.19922c1.9805 0.17578 3.7773 0.32422 5.6094 0.39844 26.703 1.1133 53.355 5.7188 81.496 14.094 49.688 14.789 89.637 37.422 122.13 69.191 6.7969 6.6445 11.027 15.469 11.051 23.016 0.011718 6.0117-2.6367 11.555-8.0859 16.938-7.2773 7.1875-14.227 14.73-21.281 22.418-3.0039 3.2695-6.0352 6.5703-9.1289 9.875l-65.793 68.211-105.58 103.23c-53.824-53.762-107.27-107.07-159.79-159.32-1.2578-1.2461-1.875-2.0586-2.0742-2.168 0.046875-0.59375 0.24609-1.9805 1.0273-4.6055 27.992-94.586-19.992-191.99-111.62-226.57-41.344-15.598-81.871-15.621-123.9-0.09375-7.7266 2.8594-13.449 9.4883-15.152 17.547-1.707 8.0625 0.84375 16.438 6.7578 22.176l20.977 20.273c18.766 18.082 36.492 35.164 53.531 52.727 0.73438 0.82812 1.7266 3.0703 1.8477 3.4883-1.2578 18.637-3.8281 37.863-7.6328 57.211-8.5742 1.6523-17.473 2.7656-26.832 3.9336-9.1172 1.1367-18.242 2.293-27.258 3.918-4.6211 0.85547-4.832 0.59375-7.6133-2.4062-16.371-17.66-33.059-34.516-50.723-52.367-7.043-7.1133-14.203-14.348-21.492-21.785-5.9297-6.0625-14.613-8.543-22.863-6.5078-8.2344 2.0234-14.789 8.2383-17.242 16.359-0.90234 2.9766-1.7109 5.4727-2.418 7.6641-1.6758 5.1914-2.8711 9.0977-3.6914 13.078-13.363 64.992 7.9805 130.16 57.082 174.33 49.117 44.188 116.23 58.508 179.53 38.355 0.57422-0.1875 1.0547-0.32422 1.4492-0.42188 0.32812 0.29688 0.73828 0.6875 1.2305 1.1836 54.504 54.977 107.21 108.06 158.55 159.69l-211.14 206.44c-22.371 21.855-44.742 43.699-66.984 65.672-30.762 30.41-32.59 79.781-4.0781 110.06 22.078 23.438 42.383 44.18 62.066 63.41 14.871 14.531 34.309 22.441 54.973 22.441 0.82031 0 1.6484-0.011719 2.4727-0.035156 21.672-0.65625 41.637-9.8789 56.203-25.957l260.43-287.5c33.371 33.438 66.289 66.375 98.859 98.926 0.59766 0.59766 0.99609 1.0547 1.2656 1.3828-0.09375 0.77344-0.35156 2.1797-0.99609 4.5469-20.402 75.375-1.3242 141.84 55.16 192.23 34.605 30.844 73.652 46.336 116.6 46.324 18.68 0 38.109-2.9297 58.23-8.8008 6.2461-1.8281 11.484-6.1055 14.52-11.871 3.0234-5.7539 3.5859-12.504 1.5469-18.68l-0.43359-1.5234c-0.70312-2.6953-2.168-8.3086-7.1602-13.371-12.305-12.516-24.656-24.996-37.008-37.477l-23.906-24.188c-13.324-13.488-31.477-40.371-3.3867-68.836 21.773-22.078 45.047-21.855 69.152 0.70312 14.93 13.98 29.789 28.055 45.082 42.527l23.25 21.996c5.8711 5.543 14.145 7.7695 21.996 5.9062 7.8516-1.8516 14.25-7.5352 17.027-15.117 0.70312-1.9453 1.3945-3.6445 2.0039-5.168 1.6055-3.9727 3.2695-8.0859 4.2422-13.066 13.418-68.391-5.1562-128.23-53.719-173.04-50.496-46.582-112.96-60.492-180.66-40.23-1.5938 0.48047-2.6836 0.73828-3.3984 0.86719-0.35156-0.30469-0.82031-0.72656-1.4062-1.3242-35.227-35.402-70.379-70.68-105.4-105.79l94.84-104.7c1.2188-1.3477 2.3672-2.7578 3.5508-4.2305l0.4375-0.53906 67.773-69.016c0.003906-0.003906 0.011719-0.007812 0.015625-0.011719l8.8594-8.832c6.9023-6.8633 13.699-13.621 20.402-20.469 3.9609-4.043 9.6562-7.9023 22.371-5.9727 23.461 3.6094 41.707 16.812 57.398 41.539 0.25781 0.40234 1.1602 2.0156 2.0508 5.7383 0.10547 0.4375 0.19922 0.82031 0.26953 1.1602-5.7305 6.6562-11.25 17.117-10.148 32.133 1.1016 15.105 7.0078 29.145 17.098 40.586 7.0898 8.043 14.391 15.879 21.715 23.285 13.125 13.273 30.387 19.961 47.438 19.961 15.914 0 31.629-5.8242 43.629-17.574 26.824-26.297 53.836-53.758 82.594-83.957 22.551-23.664 24.016-60.355 3.4141-85.344zm-891.16 614.58c-5.7305 6.3164-13.578 9.9492-22.098 10.207-8.3359 0.35156-16.395-2.8477-22.449-8.7656-19.207-18.762-39.051-39.035-60.664-61.98-10.805-11.473-9.5156-30.773 2.8711-43.008 22.176-21.914 44.477-43.688 66.777-65.473l211.43-206.79c29.121 29.262 57.84 58.09 86.18 86.508zm478.84-238.69c19.254 19.324 38.238 16.875 52.594 12.574 51.293-15.352 96.48-5.4023 134.33 29.52 29.941 27.633 43.98 60.727 42.516 100.56-12.492-11.824-24.738-23.402-37.055-34.91-43.441-40.664-95.578-40.406-136.1 0.60937-39.223 39.75-37.852 94.512 3.3867 136.29l23.953 24.211c3.2227 3.2695 6.457 6.5391 9.6914 9.8086-33.293 1.2305-63.07-10.043-89.93-33.984-43.207-38.543-56.543-85.605-40.77-143.88 4.1836-15.48 5.9414-33.809-12.68-52.418-33.109-33.086-66.586-66.586-100.52-100.59-11.242-11.262-22.59-22.641-33.941-34.023-27.668-27.746-55.711-55.898-84.129-84.449-11.238-11.293-22.449-22.555-33.82-33.988-51.414-51.699-104.2-104.86-158.79-159.93-10.395-10.488-21.453-15.633-33.996-15.633-5.4727 0-11.234 0.97656-17.336 2.9219-46.859 14.949-96.551 4.3711-132.86-28.301-29.746-26.758-45.703-63.973-45.047-103.02 13.527 13.707 26.496 26.984 39.098 40.57 14.039 15.156 30.844 20.742 51.359 17.008 8.1641-1.4766 16.406-2.4922 24.652-3.5234 11.188-1.3945 22.754-2.8359 34.449-5.3359 14.988-3.2109 29.648-17.887 32.684-32.719 4.668-22.754 7.793-45.453 9.2891-67.484 0.91406-13.641-5.207-29.754-15.246-40.102-14.074-14.508-28.379-28.484-43.266-42.867 16.527-0.67188 32.773 2.1719 49.613 8.5195 67.832 25.598 103.31 97.84 82.535 168.05-4.3945 14.848-6.8633 34.453 13.23 54.426 52.363 52.086 105.65 105.24 159.32 158.84 11.316 11.305 22.555 22.516 33.918 33.875 26.961 26.953 54.09 54.117 81.27 81.34 11.336 11.355 22.594 22.605 33.961 34.004 34.43 34.527 68.996 69.223 103.64 104.03zm-105.34-173.65c-26.484-26.527-52.934-53.008-79.215-79.285l88.273-86.336 73.043 74.984zm114.9-125.76-71.938-73.848 33.02-34.234 73.715 72.648zm364.59-24.242c-28.371 29.801-55.02 56.879-81.434 82.781-6.0117 5.8867-16.488 5.082-23.344-1.8594-6.668-6.75-13.336-13.902-19.828-21.262-2.8945-3.2891-4.5234-6.7734-5.0977-11.227 9.832-10.777 12.691-24.961 8.5312-42.184-1.8984-7.8906-4.5703-14.496-8.1914-20.199-23.016-36.262-53.508-57.551-90.633-63.258-31.969-4.9102-52.43 8.0625-63.961 19.824-3.9727 4.0625-7.9805 8.0859-12.023 12.121l-74.566-73.484c4.418-4.7695 8.8477-9.4531 13.43-13.98 14.672-14.496 22.406-32.203 22.359-51.219-0.058594-20.566-9.3398-41.418-25.488-57.211-38.203-37.359-84.656-63.812-142.01-80.883-18.332-5.457-36.602-9.5625-54.633-12.293 61.254-12.141 114.45-14.223 165.09-6.6719 62.988 9.3984 116.92 36.062 160.31 79.254 14.156 14.094 28.277 28.211 42.398 42.34 16.465 16.465 32.93 32.938 49.453 49.359 1.3242 1.3086 2.6484 3.5156 3.3867 10.754 0.5625 5.5469 0.98438 11.117 1.4062 16.684 0.85547 11.414 1.7461 23.223 3.832 35.227 6.5156 37.41 33.434 62.848 72.023 68.051 8.4609 1.1172 17.297-0.61719 24.223-4.832 5.6719-3.4727 12.176-2.9648 16.5 1.332 7.3008 7.2578 13.641 14.18 19.395 21.148 5.25 6.3594 4.7695 15.48-1.1367 21.688z"/>
</svg>
