<?xml version="1.0" encoding="UTF-8"?>
<svg width="1200pt" height="1200pt" version="1.1" viewBox="0 0 1200 1200" xmlns="http://www.w3.org/2000/svg">
 <g>
  <path d="m819.6 448.8 82.801 27.602c16.801 6 33.602-10.801 27.602-27.602l-27.602-82.801c39.602-75.602 28.801-170.4-34.801-235.2-60-60-150-74.398-222-40.801 2.3984 1.1992 3.6016 3.6016 6 4.8008 46.801 48 73.199 110.4 73.199 177.6 0 67.199-26.398 129.6-73.199 177.6-2.3984 2.3984-3.6016 3.6016-6 6 55.199 23.996 120 21.598 174-7.2031z"/>
  <path d="m615.6 130.8c-78-78-205.2-78-283.2 0-63.602 63.602-74.398 158.4-34.801 234l-27.602 82.801c-6 18 10.801 33.602 27.602 27.602l82.801-27.602c75.602 39.602 170.4 28.801 234-34.801 79.199-76.801 79.199-204 1.1992-282zm-138 259.2c-13.199 0-25.199-10.801-25.199-25.199 0-13.199 10.801-25.199 25.199-25.199 13.199 0 25.199 10.801 25.199 25.199-1.1992 13.199-12 25.199-25.199 25.199zm58.797-126c-9.6016 13.199-19.199 20.398-26.398 25.199-8.3984 6-12 8.3984-12 21.602 0 6-6 10.801-10.801 10.801h-18c-7.1992 0-12-6-12-12 2.3984-31.199 14.398-42 30-52.801 6-4.8008 12-8.3984 16.801-15.602 6-8.3984 6-18 1.1992-27.602-3.6016-6-12-16.801-31.199-16.801-26.398 0-33.602 16.801-36 28.801-1.1992 6-6 9.6016-10.801 9.6016h-18c-7.1992 0-12-6-10.801-13.199 4.8008-33.602 28.801-66 76.801-66 30 0 55.199 14.398 67.199 39.602 12 21.598 9.6016 48-6 68.398z"/>
  <path d="m372 878.4h-171.6c-93.602 0-170.4 76.801-170.4 170.4v58.801c0 10.801 8.3984 20.398 20.398 20.398h472.8c10.801 0 20.398-8.3984 20.398-20.398v-58.801c-1.1992-93.598-76.797-170.4-171.6-170.4z"/>
  <path d="m432 682.8c0 80.191-65.008 145.2-145.2 145.2-80.191 0-145.2-65.008-145.2-145.2 0-80.191 65.008-145.2 145.2-145.2 80.191 0 145.2 65.008 145.2 145.2"/>
  <path d="m999.6 878.4h-171.6c-93.602 0-170.4 76.801-170.4 170.4v58.801c0 10.801 8.3984 20.398 20.398 20.398h472.8c10.801 0 20.398-8.3984 20.398-20.398v-58.801c-1.1992-93.598-78-170.4-171.6-170.4z"/>
  <path d="m1058.4 682.8c0 80.191-65.008 145.2-145.2 145.2-80.191 0-145.2-65.008-145.2-145.2 0-80.191 65.008-145.2 145.2-145.2 80.191 0 145.2 65.008 145.2 145.2"/>
 </g>
</svg>
