<?xml version="1.0" encoding="UTF-8"?>
<svg width="1200pt" height="1200pt" version="1.1" viewBox="0 0 1200 1200" xmlns="http://www.w3.org/2000/svg">
 <path d="m996.8 711.56c-40.781 0-73.828 33.047-73.828 73.828s33.047 73.828 73.828 73.828 73.828-33.047 73.828-73.828-33.047-73.828-73.828-73.828zm-209.06 21.797c-28.828-28.828-75.703-28.828-104.53 0s-28.828 75.703 0 104.53 75.703 28.828 104.53 0 28.828-75.703 0-104.53zm90 189.14v128.67h237.89v-128.67c-8.9062-10.078-19.922-18.516-32.344-24.375-12.891-6.3281-27.656-9.6094-42.891-9.6094h-87.188c-29.531-0.23438-56.484 12.422-75.469 33.984zm-23.438 0c-18.984-21.562-45.938-33.984-75.234-33.984h-87.188c-15.469 0-30 3.5156-42.891 9.6094-12.422 5.8594-23.203 14.297-32.344 24.375v128.67h237.89v-128.67zm-380.16-210.94c-40.781 0-73.828 33.047-73.828 73.828s33.047 73.828 73.828 73.828 73.828-33.047 73.828-73.828-33.047-73.828-73.828-73.828zm-86.719 186.56c-12.188 5.8594-23.203 14.297-32.344 24.375v128.67h237.89v-128.67c-8.9062-10.078-19.922-18.516-32.109-24.375-13.125-6.3281-27.656-9.6094-42.891-9.6094h-87.422c-15.469-0.23438-30 3.2812-43.125 9.6094zm547.27-673.59v72.188h123.28v-72.188zm-513.98 72.188v-72.188h-300v72.188h300zm296.02 46.406c-34.688-34.688-94.453-10.078-94.453 39.141s59.766 73.828 94.453 39.141c21.797-21.562 21.797-56.484 0-78.281zm-39.141-39.609c43.594 0 78.75 35.391 78.75 78.75s-35.391 78.75-78.75 78.75-78.75-35.391-78.75-78.75 35.391-78.75 78.75-78.75zm15-61.641h-29.531l-2.3438 33.984c-14.297 3.5156-23.203 5.625-36.562 13.359s-19.922 14.531-30 25.078l-30.469-15-14.766 25.547 28.125 18.984c-3.9844 14.062-6.5625 22.969-6.5625 38.438 0 15.703 2.5781 24.375 6.5625 38.438l-28.125 18.984 14.766 25.547 30.469-15c10.078 10.547 16.641 17.344 30 25.078s22.5 9.8438 36.562 13.359l2.3438 33.984h29.531l2.1094-33.984c14.297-3.5156 23.203-5.625 36.562-13.359 13.594-7.7344 19.922-14.531 30-25.078l30.469 15 14.766-25.547-28.359-18.984c4.2188-14.062 6.7969-22.969 6.7969-38.438 0-15.703-2.5781-24.375-6.7969-38.438l28.125-18.984-14.766-25.547-30.469 15c-10.078-10.547-16.641-17.344-30-25.078s-22.5-9.8438-36.562-13.359zm-40.547-23.438h62.344l2.5781 38.906c18.516 5.8594 35.156 15.469 49.219 28.359l34.922-17.344 36.797 63.516-32.578 21.797c4.2188 18.75 4.2188 37.969 0 56.953l32.344 21.562-36.562 63.516-34.922-17.109c-14.062 12.891-30.938 22.734-49.219 28.359l-2.5781 38.906h-73.359l-2.5781-38.906c-18.516-5.8594-35.156-15.469-49.219-28.359l-35.156 17.109-36.562-63.516 32.344-21.797c-4.2188-18.75-4.2188-37.969 0-56.953l-32.344-21.797 36.562-63.516 35.156 17.344c14.062-12.891 30.938-22.734 49.219-28.359l2.5781-38.906h11.016zm-231.33 358.36-97.734 63.281 0.23438 157.97-11.25 115.31h20.391c12.891-15.938 26.25-27.422 45-36.328 12.656-6.0938 26.719-10.078 41.25-11.484-49.922-34.453-56.484-105.94-13.359-148.83 37.969-37.969 99.609-37.969 137.58 0 42.891 42.891 36.328 114.38-13.359 148.83 28.594 2.8125 55.078 15.469 75.234 35.391 20.156-19.922 46.641-32.578 75.234-35.391-49.922-34.453-56.484-105.7-13.359-148.83 37.969-37.969 99.609-37.969 137.58 0 42.891 42.891 36.328 114.38-13.359 148.83 28.594 2.8125 55.078 15.469 75.234 35.391 20.156-19.922 46.641-32.578 75.234-35.391-49.688-34.453-56.484-105.94-13.359-148.83 15-15 34.922-25.078 56.953-27.656v-368.91h-50.391v319.45h-513.75zm23.438-115.78c52.5-25.547 86.484 44.531 47.812 69.609l-47.812 30.938v54.609h467.11v-467.11h-467.11zm-175.78 112.03c-26.953 16.172-60.234 17.578-88.594 3.9844-0.70312 0.70312-1.6406 1.1719-2.8125 1.6406l-63.75 26.016c-18.516 7.5-29.766 25.078-28.828 45l5.8594 132.89h27.656v-101.02h23.438v112.27l22.734 257.11h44.531v-210.94h23.438v210.94h42.891l12.422-126.09c0-0.70312 0-1.1719 0.23438-1.875l12.422-126.33-0.23438-169.45 179.53-116.25c14.297-9.1406 1.1719-41.484-23.906-29.297zm-74.766-170.16c59.766-17.812 120.23 26.953 120.23 89.766 0 12.656-2.3438 24.375-6.7969 35.391l113.91-55.547v-152.34h-227.34zm26.719 19.688c-38.672 0-70.078 31.406-70.078 70.078s31.406 70.078 70.078 70.078 70.078-31.406 70.078-70.078-31.406-70.078-70.078-70.078z"/>
</svg>
