<?xml version="1.0" encoding="UTF-8"?>
<svg width="1200pt" height="1200pt" version="1.1" viewBox="0 0 1200 1200" xmlns="http://www.w3.org/2000/svg">
 <g>
  <path d="m1181.2 825h-51.578c-1.4453-3.707-3-7.3711-4.6602-10.992l31.996-32c3.5156-3.5156 5.4922-8.2852 5.4922-13.258s-1.9766-9.7422-5.4922-13.258l-75-75c-3.5156-3.5156-8.2852-5.4922-13.258-5.4922s-9.7422 1.9766-13.258 5.4922l-31.996 32.008c-3.6172-1.6602-7.2852-3.2148-10.996-4.6602v-426.59c0-4.9727-1.9766-9.7422-5.4922-13.258l-225-225c-3.5156-3.5156-8.2852-5.4922-13.258-5.4922h-487.5c-4.9727 0-9.7422 1.9766-13.258 5.4922-3.5156 3.5156-5.4922 8.2852-5.4922 13.258v131.25h-56.25c-4.9727 0-9.7422 1.9766-13.258 5.4922-3.5156 3.5156-5.4922 8.2852-5.4922 13.258v51.578c-3.707 1.4453-7.3711 3-10.996 4.6602l-31.996-31.996c-3.5156-3.5156-8.2852-5.4922-13.258-5.4922s-9.7422 1.9766-13.258 5.4922l-75 75c-3.5156 3.5156-5.4922 8.2852-5.4922 13.258s1.9766 9.7422 5.4922 13.258l32.008 32c-1.6602 3.6172-3.2148 7.2812-4.6602 10.992h-51.59c-4.9727 0-9.7422 1.9766-13.258 5.4922-3.5156 3.5156-5.4922 8.2852-5.4922 13.258v112.5c0 4.9727 1.9766 9.7422 5.4922 13.258 3.5156 3.5156 8.2852 5.4922 13.258 5.4922h51.578c1.4453 3.7031 3 7.3672 4.6602 10.992l-31.996 32c-3.5156 3.5156-5.4922 8.2852-5.4922 13.258s1.9766 9.7422 5.4922 13.258l75 75c3.5156 3.5156 8.2852 5.4922 13.258 5.4922s9.7422-1.9766 13.258-5.4922l31.996-31.996c3.6172 1.6602 7.2852 3.2148 10.996 4.6602v51.578c0 4.9727 1.9766 9.7422 5.4922 13.258 3.5156 3.5156 8.2852 5.4922 13.258 5.4922h56.25v431.25c0 4.9727 1.9766 9.7422 5.4922 13.258 3.5156 3.5156 8.2852 5.4922 13.258 5.4922h712.5c4.9727 0 9.7422-1.9766 13.258-5.4922 3.5156-3.5156 5.4922-8.2852 5.4922-13.258v-51.578c3.707-1.4453 7.3711-3 10.996-4.6602l31.996 31.996c3.5156 3.5156 8.2852 5.4922 13.258 5.4922s9.7422-1.9766 13.258-5.4922l75-75c3.5156-3.5156 5.4922-8.2852 5.4922-13.258s-1.9766-9.7422-5.4922-13.258l-31.996-32c1.6602-3.6172 3.2148-7.2812 4.6602-10.992h51.578c4.9727 0 9.7422-1.9766 13.258-5.4922 3.5156-3.5156 5.4922-8.2852 5.4922-13.258v-112.5c0-4.9727-1.9766-9.7422-5.4922-13.258-3.5156-3.5156-8.2852-5.4922-13.258-5.4922zm-918.75-337.5c-13.398 0-25.777-7.1484-32.477-18.75-6.6992-11.602-6.6992-25.898 0-37.5 6.6992-11.602 19.078-18.75 32.477-18.75zm0-112.5c-26.793 0-51.555 14.293-64.953 37.5-13.395 23.207-13.395 51.793 0 75 13.398 23.207 38.16 37.5 64.953 37.5v37.5c-40.191 0-77.332-21.441-97.43-56.25-20.094-34.809-20.094-77.691 0-112.5 20.098-34.809 57.238-56.25 97.43-56.25zm0-75c-53.59 0-103.11 28.59-129.9 75-26.797 46.41-26.797 103.59 0 150 26.793 46.41 76.312 75 129.9 75v75h-37.5v-46.102c0-3.9922-1.2734-7.8828-3.6406-11.102-2.3633-3.2188-5.6914-5.5977-9.5039-6.7891-10.414-3.2656-20.488-7.543-30.07-12.773-3.5547-1.9414-7.6406-2.6758-11.652-2.1016-4.0078 0.57813-7.7227 2.4375-10.586 5.3008l-28.297 28.301-48.484-48.484 28.297-28.297c2.8633-2.8633 4.7266-6.5781 5.3008-10.586 0.57812-4.0078-0.16016-8.0977-2.0977-11.652-5.2266-9.582-9.5039-19.656-12.773-30.07-1.1914-3.8125-3.5703-7.1406-6.7891-9.5039-3.2188-2.3672-7.1094-3.6406-11.102-3.6406h-46.102v-75h46.102c3.9922 0 7.8828-1.2734 11.102-3.6406 3.2188-2.3633 5.5977-5.6914 6.7891-9.5039 3.2695-10.414 7.5469-20.488 12.773-30.07 1.9375-3.5547 2.6758-7.6445 2.0977-11.652-0.57422-4.0078-2.4375-7.7227-5.3008-10.586l-28.297-28.297 48.484-48.484 28.297 28.301c2.8633 2.8633 6.5781 4.7227 10.586 5.3008 4.0117 0.57422 8.0977-0.16016 11.652-2.1016 9.582-5.2305 19.656-9.5078 30.07-12.773 3.8125-1.1914 7.1406-3.5703 9.5039-6.7891 2.3672-3.2188 3.6406-7.1094 3.6406-11.102v-46.102h37.5zm525-198.48 160.98 160.98h-160.98zm75 1023.5h-562.5v-1050h450v206.25c0 4.9727 1.9766 9.7422 5.4922 13.258 3.5156 3.5156 8.2852 5.4922 13.258 5.4922h206.25v337.5h-93.75c-4.9727 0-9.7422 1.9766-13.258 5.4922-3.5156 3.5156-5.4922 8.2852-5.4922 13.258v51.578c-3.707 1.4453-7.3711 3-10.996 4.6602l-31.996-31.996c-3.5156-3.5156-8.2852-5.4922-13.258-5.4922s-9.7422 1.9766-13.258 5.4922l-75 75c-3.5156 3.5156-5.4922 8.2852-5.4922 13.258s1.9766 9.7422 5.4922 13.258l32.008 32c-1.6602 3.6172-3.2148 7.2812-4.6602 10.992h-51.59c-4.9727 0-9.7422 1.9766-13.258 5.4922-3.5156 3.5156-5.4922 8.2852-5.4922 13.258v112.5c0 4.9727 1.9766 9.7422 5.4922 13.258 3.5156 3.5156 8.2852 5.4922 13.258 5.4922h51.578c1.4453 3.707 3 7.3711 4.6602 10.992l-31.996 32c-3.5156 3.5156-5.4922 8.2852-5.4922 13.258s1.9766 9.7422 5.4922 13.258l75 75c3.5156 3.5156 8.2852 5.4922 13.258 5.4922s9.7422-1.9766 13.258-5.4922l31.996-31.996c3.6172 1.6602 7.2852 3.2148 10.996 4.6602zm300-187.5h-46.102c-3.9922 0-7.8828 1.2734-11.102 3.6406-3.2188 2.3633-5.5977 5.6914-6.7891 9.5039-3.2695 10.414-7.5469 20.488-12.773 30.07-1.9375 3.5547-2.6758 7.6445-2.0977 11.652 0.57422 4.0078 2.4375 7.7227 5.3008 10.586l28.297 28.297-48.484 48.484-28.297-28.301c-2.8633-2.8633-6.5781-4.7227-10.586-5.3008-4.0117-0.57422-8.0977 0.16016-11.652 2.1016-9.582 5.2305-19.656 9.5078-30.07 12.773-3.8125 1.1914-7.1406 3.5703-9.5039 6.7891-2.3672 3.2188-3.6406 7.1094-3.6406 11.102v46.102h-75v-46.102c0-3.9922-1.2734-7.8828-3.6406-11.102-2.3633-3.2188-5.6914-5.5977-9.5039-6.7891-10.414-3.2656-20.488-7.543-30.07-12.773-3.5547-1.9414-7.6406-2.6758-11.652-2.1016-4.0078 0.57813-7.7227 2.4375-10.586 5.3008l-28.297 28.301-48.484-48.484 28.297-28.297c2.8633-2.8633 4.7266-6.5781 5.3008-10.586 0.57812-4.0078-0.16016-8.0977-2.0977-11.652-5.2266-9.582-9.5039-19.656-12.773-30.07-1.1914-3.8125-3.5703-7.1406-6.7891-9.5039-3.2188-2.3672-7.1094-3.6406-11.102-3.6406h-46.102v-75h46.102c3.9922 0 7.8828-1.2734 11.102-3.6406 3.2188-2.3633 5.5977-5.6914 6.7891-9.5039 3.2695-10.414 7.5469-20.488 12.773-30.07 1.9375-3.5547 2.6758-7.6445 2.0977-11.652-0.57422-4.0078-2.4375-7.7227-5.3008-10.586l-28.297-28.297 48.484-48.484 28.297 28.301c2.8633 2.8633 6.5781 4.7227 10.586 5.3008 4.0117 0.57422 8.0977-0.16016 11.652-2.1016 9.582-5.2305 19.656-9.5078 30.07-12.773 3.8125-1.1914 7.1406-3.5703 9.5039-6.7891 2.3672-3.2188 3.6406-7.1094 3.6406-11.102v-46.102h75v46.102c0 3.9922 1.2734 7.8828 3.6406 11.102 2.3633 3.2188 5.6914 5.5977 9.5039 6.7891 10.414 3.2656 20.488 7.543 30.07 12.773 3.5547 1.9414 7.6406 2.6758 11.652 2.1016 4.0078-0.57813 7.7227-2.4375 10.586-5.3008l28.297-28.301 48.484 48.484-28.297 28.297c-2.8633 2.8633-4.7266 6.5781-5.3008 10.586-0.57812 4.0078 0.16016 8.0977 2.0977 11.652 5.2266 9.582 9.5039 19.656 12.773 30.07 1.1914 3.8125 3.5703 7.1406 6.7891 9.5039 3.2188 2.3672 7.1094 3.6406 11.102 3.6406h46.102z"/>
  <path d="m937.5 750c-39.781 0-77.938 15.805-106.07 43.934s-43.934 66.285-43.934 106.07 15.805 77.938 43.934 106.07 66.285 43.934 106.07 43.934 77.938-15.805 106.07-43.934 43.934-66.285 43.934-106.07c-0.042969-39.77-15.863-77.895-43.984-106.02s-66.246-43.941-106.02-43.984zm0 262.5c-29.836 0-58.453-11.852-79.551-32.949-21.098-21.098-32.949-49.715-32.949-79.551s11.852-58.453 32.949-79.551c21.098-21.098 49.715-32.949 79.551-32.949s58.453 11.852 79.551 32.949c21.098 21.098 32.949 49.715 32.949 79.551-0.035156 29.828-11.898 58.422-32.988 79.512-21.09 21.09-49.684 32.953-79.512 32.988z"/>
  <path d="m937.5 825c-19.891 0-38.969 7.9023-53.031 21.969-14.066 14.062-21.969 33.141-21.969 53.031s7.9023 38.969 21.969 53.031c14.062 14.066 33.141 21.969 53.031 21.969s38.969-7.9023 53.031-21.969c14.066-14.062 21.969-33.141 21.969-53.031-0.023438-19.883-7.9297-38.949-21.992-53.008-14.059-14.062-33.125-21.969-53.008-21.992zm0 112.5c-9.9453 0-19.484-3.9492-26.516-10.984-7.0352-7.0312-10.984-16.57-10.984-26.516s3.9492-19.484 10.984-26.516c7.0312-7.0352 16.57-10.984 26.516-10.984s19.484 3.9492 26.516 10.984c7.0352 7.0312 10.984 16.57 10.984 26.516-0.011719 9.9414-3.9648 19.473-10.996 26.504s-16.562 10.984-26.504 10.996z"/>
  <path d="m431.25 300h75c6.6992 0 12.887-3.5742 16.238-9.375 3.3477-5.8008 3.3477-12.949 0-18.75-3.3516-5.8008-9.5391-9.375-16.238-9.375h-75c-6.6992 0-12.887 3.5742-16.238 9.375-3.3477 5.8008-3.3477 12.949 0 18.75 3.3516 5.8008 9.5391 9.375 16.238 9.375z"/>
  <path d="m393.75 375h262.5c6.6992 0 12.887-3.5742 16.238-9.375 3.3477-5.8008 3.3477-12.949 0-18.75-3.3516-5.8008-9.5391-9.375-16.238-9.375h-262.5c-6.6992 0-12.887 3.5742-16.238 9.375-3.3477 5.8008-3.3477 12.949 0 18.75 3.3516 5.8008 9.5391 9.375 16.238 9.375z"/>
  <path d="m393.75 525h262.5c6.6992 0 12.887-3.5742 16.238-9.375 3.3477-5.8008 3.3477-12.949 0-18.75-3.3516-5.8008-9.5391-9.375-16.238-9.375h-262.5c-6.6992 0-12.887 3.5742-16.238 9.375-3.3477 5.8008-3.3477 12.949 0 18.75 3.3516 5.8008 9.5391 9.375 16.238 9.375z"/>
  <path d="m656.25 562.5h-262.5c-6.6992 0-12.887 3.5742-16.238 9.375-3.3477 5.8008-3.3477 12.949 0 18.75 3.3516 5.8008 9.5391 9.375 16.238 9.375h262.5c6.6992 0 12.887-3.5742 16.238-9.375 3.3477-5.8008 3.3477-12.949 0-18.75-3.3516-5.8008-9.5391-9.375-16.238-9.375z"/>
  <path d="m393.75 450h75c6.6992 0 12.887-3.5742 16.238-9.375 3.3477-5.8008 3.3477-12.949 0-18.75-3.3516-5.8008-9.5391-9.375-16.238-9.375h-75c-6.6992 0-12.887 3.5742-16.238 9.375-3.3477 5.8008-3.3477 12.949 0 18.75 3.3516 5.8008 9.5391 9.375 16.238 9.375z"/>
  <path d="m581.25 300h75c6.6992 0 12.887-3.5742 16.238-9.375 3.3477-5.8008 3.3477-12.949 0-18.75-3.3516-5.8008-9.5391-9.375-16.238-9.375h-75c-6.6992 0-12.887 3.5742-16.238 9.375-3.3477 5.8008-3.3477 12.949 0 18.75 3.3516 5.8008 9.5391 9.375 16.238 9.375z"/>
  <path d="m656.25 412.5h-112.5c-6.6992 0-12.887 3.5742-16.238 9.375-3.3477 5.8008-3.3477 12.949 0 18.75 3.3516 5.8008 9.5391 9.375 16.238 9.375h112.5c6.6992 0 12.887-3.5742 16.238-9.375 3.3477-5.8008 3.3477-12.949 0-18.75-3.3516-5.8008-9.5391-9.375-16.238-9.375z"/>
  <path d="m768.75 600h112.5c4.9727 0 9.7422-1.9766 13.258-5.4922 3.5156-3.5156 5.4922-8.2852 5.4922-13.258v-225c0-4.9727-1.9766-9.7422-5.4922-13.258-3.5156-3.5156-8.2852-5.4922-13.258-5.4922h-112.5c-4.9727 0-9.7422 1.9766-13.258 5.4922-3.5156 3.5156-5.4922 8.2852-5.4922 13.258v225c0 4.9727 1.9766 9.7422 5.4922 13.258 3.5156 3.5156 8.2852 5.4922 13.258 5.4922zm18.75-225h75v187.5h-75z"/>
  <path d="m581.25 637.5h-187.5c-4.9727 0-9.7422 1.9766-13.258 5.4922-3.5156 3.5156-5.4922 8.2852-5.4922 13.258v262.5c0 4.9727 1.9766 9.7422 5.4922 13.258 3.5156 3.5156 8.2852 5.4922 13.258 5.4922h187.5c4.9727 0 9.7422-1.9766 13.258-5.4922 3.5156-3.5156 5.4922-8.2852 5.4922-13.258v-262.5c0-4.9727-1.9766-9.7422-5.4922-13.258-3.5156-3.5156-8.2852-5.4922-13.258-5.4922zm-18.75 262.5h-150v-225h150z"/>
 </g>
</svg>
