<?xml version="1.0" encoding="UTF-8"?>
<svg version="1.1" viewBox="0 0 1200 1200" xmlns="http://www.w3.org/2000/svg">
 <g>
  <path d="m553.85 624.41c-46.801 0-90.555-19.523-123.23-55.062l-286.48-313.29c-8.5391-9.4141-7.9375-24.047 1.5234-32.629 9.3711-8.5391 24-7.9375 32.629 1.4766l286.43 313.25c47.539 51.691 130.8 51.738 178.43-0.046875l285.88-312.79c8.6758-9.4609 23.168-10.016 32.629-1.4766 9.3711 8.6758 10.109 23.168 1.4297 32.629l-285.92 312.83c-32.77 35.586-76.477 55.109-123.32 55.109z"/>
  <path d="m161.17 771.46c-6.2305 0-12.508-2.5391-17.031-7.5234-8.5859-9.4141-7.9375-24.047 1.4766-32.586l251.86-229.98c9.4609-8.6758 24-7.9844 32.676 1.4297 8.5859 9.4141 7.9375 24-1.4766 32.586l-251.86 230.03c-4.4766 4.0156-10.016 6.0469-15.645 6.0469z"/>
  <path d="m849.18 682.48c-5.5859 0-11.078-1.9844-15.555-6.0469l-154.57-141.09c-9.4141-8.5859-10.109-23.168-1.4297-32.586 8.6758-9.4609 23.215-10.109 32.539-1.4766l154.62 141.09c9.3711 8.5859 10.109 23.168 1.4297 32.586-4.5703 4.9844-10.848 7.5234-17.031 7.5234z"/>
  <path d="m947.26 1130.8c-139.98 0-253.85-113.86-253.85-253.85s113.86-253.85 253.85-253.85 253.85 113.86 253.85 253.85c0 12.691-10.383 23.078-23.078 23.078-12.691 0-23.078-10.383-23.078-23.078 0-114.46-93.23-207.69-207.69-207.69-114.46 0-207.69 93.23-207.69 207.69s93.23 207.69 207.69 207.69c54.184 0 105.46-20.723 144.41-58.43 9.1836-8.8633 23.863-8.6758 32.629 0.55469 8.8164 9.0938 8.6758 23.77-0.55469 32.629-47.586 46.062-110.36 71.398-176.49 71.398z"/>
  <path d="m947.26 992.31c-63.602 0-115.38-51.785-115.38-115.38 0-63.602 51.785-115.38 115.38-115.38 63.645 0 115.38 51.785 115.38 115.38 0 63.602-51.738 115.38-115.38 115.38zm0-184.62c-38.125 0-69.23 31.062-69.23 69.23s31.109 69.23 69.23 69.23c38.168 0 69.23-31.062 69.23-69.23s-31.016-69.23-69.23-69.23z"/>
  <path d="m692.31 900h-576.92c-63.602 0-115.38-51.785-115.38-115.38v-600c0-63.602 51.785-115.38 115.38-115.38h876.92c63.602 0 115.38 51.785 115.38 115.38v484.62c0 12.691-10.383 23.078-23.078 23.078-12.691 0-23.078-10.383-23.078-23.078v-484.62c0-38.168-31.109-69.23-69.23-69.23h-876.92c-38.168 0-69.23 31.062-69.23 69.23v600c0 38.168 31.062 69.23 69.23 69.23h576.92c12.691 0 23.078 10.383 23.078 23.078 0 12.691-10.246 23.078-23.078 23.078z"/>
  <path d="m1107.7 969.23c-50.953 0-92.309-41.355-92.309-92.309 0-12.691 10.383-23.078 23.078-23.078 12.691 0 23.078 10.383 23.078 23.078 0 25.43 20.723 46.152 46.152 46.152 25.43 0 46.152-20.723 46.152-46.152 0-12.691 10.383-23.078 23.078-23.078 12.691 0 23.078 10.383 23.078 23.078 0 50.953-41.355 92.309-92.309 92.309z"/>
 </g>
</svg>
